<?xml version="1.0" encoding="utf-8"?>
<!-- Generator: Adobe Illustrator 22.0.1, SVG Export Plug-In . SVG Version: 6.00 Build 0)  -->
<svg version="1.1" id="Layer_1" xmlns="http://www.w3.org/2000/svg" xmlns:xlink="http://www.w3.org/1999/xlink" x="0px" y="0px"
	 viewBox="0 0 487.7 463.2" style="enable-background:new 0 0 487.7 463.2;" xml:space="preserve">
<style type="text/css">
	.st0{fill:#4593BD;}
	.st1{fill:#FDFDFD;}
	.st2{fill:#745347;}
	.st3{fill:#BECB50;}
	.st4{fill:#E4A131;}
	.st5{fill:#005F84;}
</style>
<title>mio-logo-vektori</title>
<g id="Layer_4">
	<rect y="0" class="st0" width="487.7" height="463.2"/>
</g>
<g id="hahmot">
	<path class="st1" d="M471.6,192.1c3,0.2,5.1,11.2,3.7,31.7c-0.9,13-4,57.2-35.3,85.5c-8.3,7.5-12.9,8.7-28.5,22.8
		c-19.7,17.8-23.5,25.7-25.1,31.9c-1.7,6.5-1.3,12,2.3,28.5c4.5,20.9,8.8,28.4,13.7,51.3c1.8,8.4,2.9,15.3,3.4,19.4H257.6
		c0.1-5.3,0.5-13.7,1.1-23.9c2.2-32.8,3.9-55,13.7-79.8c5.9-14.8,26.2-35.2,40.7-41.7c8.7-3.9,17.6-7.2,26.6-10
		c11.3-3.5,20.2-5.5,31.8-8.1c22.5-4.9,20-3.1,26-5.4c18.2-6.8,29.8-19.4,34.4-24.5c3.7-4.1,7-8.4,10-13
		C463.8,223.1,467.3,191.9,471.6,192.1z"/>
	<path class="st1" d="M374.3,289c7-3.7,13.6-49.2-0.8-69.8c-2.7-3.8-9-14.6-22.2-21.8c-6.3-3.4-13.1-5.6-20.2-6.4
		c-20.1-4.6-77.8,6.7-66.6,84.7c4.8,20.6,16.5,34.7,28.6,42C317.7,302.2,345.4,292.3,374.3,289z"/>
	<path class="st2" d="M37,192.1c-3,0.2-5.1,11.2-3.7,31.7c0.9,13,4,57.2,35.3,85.5c8.3,7.5,12.9,8.7,28.5,22.8
		c19.7,17.8,23.5,25.7,25.1,31.9c1.7,6.5,1.3,12-2.3,28.5c-4.5,20.9-8.8,28.4-13.7,51.3c-1.8,8.4-2.8,15.3-3.4,19.4H251
		c-0.1-5.3-0.4-13.7-1.1-23.9c-2.2-32.8-3.9-55-13.7-79.8c-5.9-14.8-26.2-35.2-40.7-41.7c-8.7-3.9-17.6-7.2-26.6-10
		c-11.3-3.5-20.2-5.5-31.8-8.1c-22.5-4.9-20-3.1-26-5.4c-18.2-6.8-29.8-19.4-34.5-24.5c-3.7-4.1-7-8.4-9.9-13
		C44.8,223.1,41.3,191.9,37,192.1z"/>
	<path class="st2" d="M134.3,289c-7-3.7-13.6-49.2,0.8-69.8c2.7-3.8,9-14.6,22.2-21.8c6.3-3.4,13.1-5.6,20.2-6.4
		c20.1-4.6,77.8,6.7,66.6,84.7c-4.8,20.6-16.5,34.7-28.6,42C190.9,302.2,163.2,292.3,134.3,289z"/>
</g>
<g id="teksti">
	<path class="st3" d="M66.9,154.7c0,0-6.2,11.1-12.7,0V31.4c0,0,4.2-12.3,12.7-3.7l44.7,89.1c0,0,2.8,7.4,4.8,0l42.7-88.2
		c0,0,8.2-12,14.4,0.3v123.3c0,0-5.6,14.5-13.6,0V60.4c0,0,0.6-8-3.4-1.2l-35.3,74.6c0,0-6.5,10.8-14.1,0.6L70.3,61.3
		c0,0-2.8-8.3-3.1,0.3L66.9,154.7z"/>
	<path class="st4" d="M265.4,31.3c-1.5,1.1-7-12.2-13.6-2.2c0,0,0.6,98.5,0.3,120.3l0.2,0.2c1.8,0.1,7.6,12.9,13.6,3.3V31.7
		C265.7,31.6,265.6,31.5,265.4,31.3z"/>
	<g id="o">
		<path class="st5" d="M453.6,91.5c1,75.4-60.3,67.6-60.3,67.6s-49.8,5.8-54.6-68.1c3.6-75.2,54.6-68.1,54.6-68.1
			S452.7,16.2,453.6,91.5z M394.1,141.9c0,0,45.7,5.8,45-50.5s-45-51.2-45-51.2s-38.1-5.3-40.8,50.9
			C356.9,146.2,394.1,141.9,394.1,141.9z"/>
	</g>
</g>
</svg>
