<?xml version="1.0" encoding="utf-8"?>
<!-- Generator: Adobe Illustrator 22.0.1, SVG Export Plug-In . SVG Version: 6.00 Build 0)  -->
<svg version="1.1" id="Layer_1" xmlns="http://www.w3.org/2000/svg" xmlns:xlink="http://www.w3.org/1999/xlink" x="0px" y="0px"
	 viewBox="0 0 100 172" style="enable-background:new 0 0 100 172;" xml:space="preserve">
<style type="text/css">
	.st0{fill:#4593BD;}
	.st1{fill:#FDFDFD;}
	.st2{fill:#745347;}
	.st3{fill:#BECB50;}
	.st4{fill:#E4A131;}
	.st5{fill:#005F84;}
</style>
<polygon class="st0" points="0,0 100,0 100,172 50,133 0,172 "/>
<g>
	<g id="Layer_4">
		<rect x="3" y="29.6" class="st0" width="94" height="89.3"/>
	</g>
	<g id="hahmot">
		<path class="st1" d="M93.9,66.6c0.6,0,1,2.2,0.7,6.1c-0.2,2.5-0.8,11-6.8,16.5c-1.6,1.4-2.5,1.7-5.5,4.4c-3.8,3.4-4.5,5-4.8,6.2
			c-0.3,1.3-0.2,2.3,0.4,5.5c0.9,4,1.7,5.5,2.6,9.9c0.3,1.6,0.5,2.9,0.7,3.7H52.7c0-1,0.1-2.6,0.2-4.6c0.4-6.3,0.7-10.6,2.6-15.4
			c1.1-2.9,5-6.8,7.8-8c1.7-0.7,3.4-1.4,5.1-1.9c2.2-0.7,3.9-1.1,6.1-1.6c4.3-1,3.9-0.6,5-1c3.5-1.3,5.7-3.7,6.6-4.7
			c0.7-0.8,1.3-1.6,1.9-2.5C92.4,72.6,93.1,66.6,93.9,66.6z"/>
		<path class="st1" d="M75.1,85.3c1.3-0.7,2.6-9.5-0.2-13.5c-0.5-0.7-1.7-2.8-4.3-4.2c-1.2-0.7-2.5-1.1-3.9-1.2
			c-3.9-0.9-15,1.3-12.8,16.3c0.9,4,3.2,6.7,5.5,8.1C64.2,87.8,69.6,85.9,75.1,85.3z"/>
		<path class="st2" d="M10.1,66.6c-0.6,0-1,2.2-0.7,6.1c0.2,2.5,0.8,11,6.8,16.5c1.6,1.4,2.5,1.7,5.5,4.4c3.8,3.4,4.5,5,4.8,6.2
			c0.3,1.3,0.2,2.3-0.4,5.5c-0.9,4-1.7,5.5-2.6,9.9c-0.3,1.6-0.5,2.9-0.7,3.7h28.6c0-1-0.1-2.6-0.2-4.6c-0.4-6.3-0.7-10.6-2.6-15.4
			c-1.1-2.9-5-6.8-7.8-8c-1.7-0.7-3.4-1.4-5.1-1.9c-2.2-0.7-3.9-1.1-6.1-1.6c-4.3-1-3.9-0.6-5-1c-3.5-1.3-5.7-3.7-6.6-4.7
			c-0.7-0.8-1.3-1.6-1.9-2.5C11.6,72.6,11,66.6,10.1,66.6z"/>
		<path class="st2" d="M28.9,85.3c-1.3-0.7-2.6-9.5,0.2-13.5c0.5-0.7,1.7-2.8,4.3-4.2c1.2-0.7,2.5-1.1,3.9-1.2
			c3.9-0.9,15,1.3,12.8,16.3c-0.9,4-3.2,6.7-5.5,8.1C39.8,87.8,34.5,85.9,28.9,85.3z"/>
	</g>
	<g id="teksti">
		<path class="st3" d="M15.9,59.4c0,0-1.2,2.1-2.5,0V35.6c0,0,0.8-2.4,2.5-0.7l8.6,17.2c0,0,0.5,1.4,0.9,0l8.2-17
			c0,0,1.6-2.3,2.8,0.1v23.8c0,0-1.1,2.8-2.6,0V41.2c0,0,0.1-1.5-0.7-0.2l-6.8,14.4c0,0-1.3,2.1-2.7,0.1l-7.1-14.1
			c0,0-0.5-1.6-0.6,0.1L15.9,59.4z"/>
		<path class="st4" d="M54.2,35.6c-0.3,0.2-1.3-2.4-2.6-0.4c0,0,0.1,19,0.1,23.2l0,0c0.3,0,1.5,2.5,2.6,0.6L54.2,35.6
			C54.2,35.7,54.2,35.6,54.2,35.6z"/>
		<g id="o">
			<path class="st5" d="M90.4,47.2c0.2,14.5-11.6,13-11.6,13s-9.6,1.1-10.5-13.1C69,32.6,78.8,34,78.8,34S90.2,32.7,90.4,47.2z
				 M79,56.9c0,0,8.8,1.1,8.7-9.7S79,37.3,79,37.3s-7.3-1-7.9,9.8C71.8,57.8,79,56.9,79,56.9z"/>
		</g>
	</g>
</g>
</svg>
